<mxfile host="app.diagrams.net" agent="Mozilla/5.0 (Windows NT 10.0; Win64; x64) AppleWebKit/537.36 (KHTML, like Gecko) Chrome/128.0.0.0 Safari/537.36" version="24.7.7">
  <diagram name="Page-1" id="oGRTlyfGAdO0iNpxejOU">
    <mxGraphModel grid="1" page="1" gridSize="10" guides="1" tooltips="1" connect="1" arrows="1" fold="1" pageScale="1" pageWidth="850" pageHeight="1100" math="0" shadow="0">
      <root>
        <mxCell id="0" />
        <mxCell id="1" parent="0" />
        <mxCell id="TEjGhy-0zvvfLUoEbb6R-1" value="&lt;p style=&quot;margin:0px;margin-top:6px;text-align:center;&quot;&gt;Employee data component&lt;/p&gt;&lt;hr size=&quot;1&quot; style=&quot;border-style:solid;&quot;&gt;&lt;p style=&quot;margin:0px;margin-left:8px;&quot;&gt;+ Attribute1:&amp;nbsp;personal details,&lt;/p&gt;&lt;p style=&quot;margin:0px;margin-left:8px;&quot;&gt;+ Attribute1:&amp;nbsp;employment status&lt;br&gt;&lt;/p&gt;&lt;p style=&quot;margin:0px;margin-left:8px;&quot;&gt;&lt;br&gt;&lt;/p&gt;" style="align=left;overflow=fill;html=1;dropTarget=0;whiteSpace=wrap;" vertex="1" parent="1">
          <mxGeometry x="40" y="40" width="288" height="140" as="geometry" />
        </mxCell>
        <mxCell id="TEjGhy-0zvvfLUoEbb6R-2" value="" style="shape=component;jettyWidth=8;jettyHeight=4;" vertex="1" parent="TEjGhy-0zvvfLUoEbb6R-1">
          <mxGeometry x="1" width="20" height="20" relative="1" as="geometry">
            <mxPoint x="-24" y="4" as="offset" />
          </mxGeometry>
        </mxCell>
        <mxCell id="TEjGhy-0zvvfLUoEbb6R-3" value="&lt;p style=&quot;margin:0px;margin-top:6px;text-align:center;&quot;&gt;&lt;b&gt;Reporting component&lt;/b&gt;&lt;/p&gt;&lt;hr size=&quot;1&quot; style=&quot;border-style:solid;&quot;&gt;&lt;p style=&quot;margin:0px;margin-left:8px;&quot;&gt;+ Attribute1:&amp;nbsp;&lt;span style=&quot;background-color: initial;&quot;&gt;employee performance,&lt;/span&gt;&lt;/p&gt;&lt;p style=&quot;margin:0px;margin-left:8px;&quot;&gt;+ Attribute2:&amp;nbsp;&lt;span style=&quot;background-color: initial;&quot;&gt;attendance, and payroll.&lt;/span&gt;&lt;/p&gt;" style="align=left;overflow=fill;html=1;dropTarget=0;whiteSpace=wrap;" vertex="1" parent="1">
          <mxGeometry x="545" y="40" width="270" height="130" as="geometry" />
        </mxCell>
        <mxCell id="TEjGhy-0zvvfLUoEbb6R-4" value="" style="shape=component;jettyWidth=8;jettyHeight=4;" vertex="1" parent="TEjGhy-0zvvfLUoEbb6R-3">
          <mxGeometry x="1" width="20" height="20" relative="1" as="geometry">
            <mxPoint x="-24" y="4" as="offset" />
          </mxGeometry>
        </mxCell>
        <mxCell id="TEjGhy-0zvvfLUoEbb6R-5" value="&lt;p style=&quot;margin:0px;margin-top:6px;text-align:center;&quot;&gt;&lt;b&gt;Payroll component&lt;/b&gt;&lt;/p&gt;&lt;hr size=&quot;1&quot; style=&quot;border-style:solid;&quot;&gt;&lt;p style=&quot;margin:0px;margin-left:8px;&quot;&gt;+ Attribute1:&amp;nbsp;&lt;span style=&quot;background-color: initial;&quot;&gt;Processes employee salaries.&lt;/span&gt;&lt;/p&gt;&lt;p style=&quot;margin:0px;margin-left:8px;&quot;&gt;+ Attribute2:&amp;nbsp;&lt;span style=&quot;background-color: initial;&quot;&gt;generates&lt;/span&gt;&lt;/p&gt;&lt;p style=&quot;margin: 0px 0px 0px 8px;&quot;&gt;payslips.&lt;/p&gt;" style="align=left;overflow=fill;html=1;dropTarget=0;whiteSpace=wrap;" vertex="1" parent="1">
          <mxGeometry x="40" y="416" width="288" height="130" as="geometry" />
        </mxCell>
        <mxCell id="TEjGhy-0zvvfLUoEbb6R-6" value="" style="shape=component;jettyWidth=8;jettyHeight=4;" vertex="1" parent="TEjGhy-0zvvfLUoEbb6R-5">
          <mxGeometry x="1" width="20" height="20" relative="1" as="geometry">
            <mxPoint x="-24" y="4" as="offset" />
          </mxGeometry>
        </mxCell>
        <mxCell id="TEjGhy-0zvvfLUoEbb6R-7" value="&lt;p style=&quot;margin:0px;margin-top:6px;text-align:center;&quot;&gt;&lt;b&gt;Attendance component&lt;/b&gt;&lt;br&gt;&lt;/p&gt;&lt;div&gt;&lt;b&gt;&lt;br&gt;&lt;/b&gt;&lt;/div&gt;&lt;hr size=&quot;1&quot; style=&quot;border-style:solid;&quot;&gt;&lt;p style=&quot;margin:0px;margin-left:8px;&quot;&gt;+ Attribute1:&amp;nbsp;Tracks employee attendance,&lt;br&gt;+ Attribute2: Check in/Check out&lt;/p&gt;" style="align=left;overflow=fill;html=1;dropTarget=0;whiteSpace=wrap;" vertex="1" parent="1">
          <mxGeometry x="540" y="420" width="270" height="130" as="geometry" />
        </mxCell>
        <mxCell id="TEjGhy-0zvvfLUoEbb6R-8" value="" style="shape=component;jettyWidth=8;jettyHeight=4;" vertex="1" parent="TEjGhy-0zvvfLUoEbb6R-7">
          <mxGeometry x="1" width="20" height="20" relative="1" as="geometry">
            <mxPoint x="-24" y="4" as="offset" />
          </mxGeometry>
        </mxCell>
        <mxCell id="TEjGhy-0zvvfLUoEbb6R-26" value="" style="rounded=0;orthogonalLoop=1;jettySize=auto;html=1;endArrow=halfCircle;endFill=0;endSize=6;strokeWidth=1;sketch=0;" edge="1" parent="1" target="TEjGhy-0zvvfLUoEbb6R-28">
          <mxGeometry relative="1" as="geometry">
            <mxPoint x="72" y="408" as="sourcePoint" />
          </mxGeometry>
        </mxCell>
        <mxCell id="TEjGhy-0zvvfLUoEbb6R-27" value="" style="rounded=0;orthogonalLoop=1;jettySize=auto;html=1;endArrow=oval;endFill=0;sketch=0;sourcePerimeterSpacing=0;targetPerimeterSpacing=0;endSize=10;" edge="1" parent="1" target="TEjGhy-0zvvfLUoEbb6R-28">
          <mxGeometry relative="1" as="geometry">
            <mxPoint x="72" y="182" as="sourcePoint" />
          </mxGeometry>
        </mxCell>
        <mxCell id="TEjGhy-0zvvfLUoEbb6R-28" value="" style="ellipse;whiteSpace=wrap;html=1;align=center;aspect=fixed;fillColor=none;strokeColor=none;resizable=0;perimeter=centerPerimeter;rotatable=0;allowArrows=0;points=[];outlineConnect=1;" vertex="1" parent="1">
          <mxGeometry x="67" y="250" width="10" height="10" as="geometry" />
        </mxCell>
        <mxCell id="TEjGhy-0zvvfLUoEbb6R-29" value="" style="rounded=0;orthogonalLoop=1;jettySize=auto;html=1;endArrow=halfCircle;endFill=0;endSize=6;strokeWidth=1;sketch=0;exitX=0.368;exitY=-0.018;exitDx=0;exitDy=0;exitPerimeter=0;" edge="1" parent="1" source="TEjGhy-0zvvfLUoEbb6R-7" target="TEjGhy-0zvvfLUoEbb6R-31">
          <mxGeometry relative="1" as="geometry">
            <mxPoint x="630.8421566611842" y="345" as="sourcePoint" />
            <Array as="points">
              <mxPoint x="640" y="350" />
            </Array>
          </mxGeometry>
        </mxCell>
        <mxCell id="TEjGhy-0zvvfLUoEbb6R-30" value="" style="rounded=0;orthogonalLoop=1;jettySize=auto;html=1;endArrow=oval;endFill=0;sketch=0;sourcePerimeterSpacing=0;targetPerimeterSpacing=0;endSize=10;exitX=0.231;exitY=1.002;exitDx=0;exitDy=0;exitPerimeter=0;" edge="1" parent="1" source="TEjGhy-0zvvfLUoEbb6R-1" target="TEjGhy-0zvvfLUoEbb6R-31">
          <mxGeometry relative="1" as="geometry">
            <mxPoint x="110" y="345" as="sourcePoint" />
            <Array as="points">
              <mxPoint x="110" y="345" />
            </Array>
          </mxGeometry>
        </mxCell>
        <mxCell id="TEjGhy-0zvvfLUoEbb6R-31" value="" style="ellipse;whiteSpace=wrap;html=1;align=center;aspect=fixed;fillColor=none;strokeColor=none;resizable=0;perimeter=centerPerimeter;rotatable=0;allowArrows=0;points=[];outlineConnect=1;" vertex="1" parent="1">
          <mxGeometry x="145" y="340" width="10" height="10" as="geometry" />
        </mxCell>
        <mxCell id="TEjGhy-0zvvfLUoEbb6R-35" value="" style="rounded=0;orthogonalLoop=1;jettySize=auto;html=1;endArrow=halfCircle;endFill=0;endSize=6;strokeWidth=1;sketch=0;exitX=0;exitY=0.538;exitDx=0;exitDy=0;exitPerimeter=0;" edge="1" parent="1" source="TEjGhy-0zvvfLUoEbb6R-3" target="TEjGhy-0zvvfLUoEbb6R-37">
          <mxGeometry relative="1" as="geometry">
            <mxPoint x="450" y="110" as="sourcePoint" />
          </mxGeometry>
        </mxCell>
        <mxCell id="TEjGhy-0zvvfLUoEbb6R-36" value="" style="rounded=0;orthogonalLoop=1;jettySize=auto;html=1;endArrow=oval;endFill=0;sketch=0;sourcePerimeterSpacing=0;targetPerimeterSpacing=0;endSize=10;" edge="1" parent="1" target="TEjGhy-0zvvfLUoEbb6R-37">
          <mxGeometry relative="1" as="geometry">
            <mxPoint x="330" y="110" as="sourcePoint" />
          </mxGeometry>
        </mxCell>
        <mxCell id="TEjGhy-0zvvfLUoEbb6R-37" value="" style="ellipse;whiteSpace=wrap;html=1;align=center;aspect=fixed;fillColor=none;strokeColor=none;resizable=0;perimeter=centerPerimeter;rotatable=0;allowArrows=0;points=[];outlineConnect=1;" vertex="1" parent="1">
          <mxGeometry x="425" y="105" width="10" height="10" as="geometry" />
        </mxCell>
        <mxCell id="TEjGhy-0zvvfLUoEbb6R-38" value="" style="rounded=0;orthogonalLoop=1;jettySize=auto;html=1;endArrow=halfCircle;endFill=0;endSize=6;strokeWidth=1;sketch=0;exitX=0.545;exitY=1.029;exitDx=0;exitDy=0;exitPerimeter=0;" edge="1" parent="1" source="TEjGhy-0zvvfLUoEbb6R-3" target="TEjGhy-0zvvfLUoEbb6R-40">
          <mxGeometry relative="1" as="geometry">
            <mxPoint x="280" y="375" as="sourcePoint" />
            <Array as="points">
              <mxPoint x="690" y="375" />
            </Array>
          </mxGeometry>
        </mxCell>
        <mxCell id="TEjGhy-0zvvfLUoEbb6R-39" value="" style="rounded=0;orthogonalLoop=1;jettySize=auto;html=1;endArrow=oval;endFill=0;sketch=0;sourcePerimeterSpacing=0;targetPerimeterSpacing=0;endSize=10;exitX=0.556;exitY=0;exitDx=0;exitDy=0;exitPerimeter=0;" edge="1" parent="1" source="TEjGhy-0zvvfLUoEbb6R-5" target="TEjGhy-0zvvfLUoEbb6R-40">
          <mxGeometry relative="1" as="geometry">
            <mxPoint x="240" y="375" as="sourcePoint" />
            <Array as="points">
              <mxPoint x="200" y="375" />
            </Array>
          </mxGeometry>
        </mxCell>
        <mxCell id="TEjGhy-0zvvfLUoEbb6R-40" value="" style="ellipse;whiteSpace=wrap;html=1;align=center;aspect=fixed;fillColor=none;strokeColor=none;resizable=0;perimeter=centerPerimeter;rotatable=0;allowArrows=0;points=[];outlineConnect=1;" vertex="1" parent="1">
          <mxGeometry x="255" y="370" width="10" height="10" as="geometry" />
        </mxCell>
        <mxCell id="TEjGhy-0zvvfLUoEbb6R-41" value="" style="rounded=0;orthogonalLoop=1;jettySize=auto;html=1;endArrow=halfCircle;endFill=0;endSize=6;strokeWidth=1;sketch=0;exitX=1;exitY=0.75;exitDx=0;exitDy=0;" edge="1" parent="1" source="TEjGhy-0zvvfLUoEbb6R-5" target="TEjGhy-0zvvfLUoEbb6R-43">
          <mxGeometry relative="1" as="geometry">
            <mxPoint x="460" y="475" as="sourcePoint" />
          </mxGeometry>
        </mxCell>
        <mxCell id="TEjGhy-0zvvfLUoEbb6R-42" value="" style="rounded=0;orthogonalLoop=1;jettySize=auto;html=1;endArrow=oval;endFill=0;sketch=0;sourcePerimeterSpacing=0;targetPerimeterSpacing=0;endSize=10;exitX=-0.01;exitY=0.69;exitDx=0;exitDy=0;exitPerimeter=0;" edge="1" parent="1" source="TEjGhy-0zvvfLUoEbb6R-7" target="TEjGhy-0zvvfLUoEbb6R-43">
          <mxGeometry relative="1" as="geometry">
            <mxPoint x="530" y="510" as="sourcePoint" />
          </mxGeometry>
        </mxCell>
        <mxCell id="TEjGhy-0zvvfLUoEbb6R-43" value="" style="ellipse;whiteSpace=wrap;html=1;align=center;aspect=fixed;fillColor=none;strokeColor=none;resizable=0;perimeter=centerPerimeter;rotatable=0;allowArrows=0;points=[];outlineConnect=1;" vertex="1" parent="1">
          <mxGeometry x="425" y="507" width="10" height="10" as="geometry" />
        </mxCell>
        <mxCell id="TEjGhy-0zvvfLUoEbb6R-44" value="" style="rounded=0;orthogonalLoop=1;jettySize=auto;html=1;endArrow=halfCircle;endFill=0;endSize=6;strokeWidth=1;sketch=0;exitX=0.73;exitY=1.016;exitDx=0;exitDy=0;exitPerimeter=0;" edge="1" parent="1" source="TEjGhy-0zvvfLUoEbb6R-3">
          <mxGeometry relative="1" as="geometry">
            <mxPoint x="742.5" y="170" as="sourcePoint" />
            <mxPoint x="740" y="305" as="targetPoint" />
          </mxGeometry>
        </mxCell>
        <mxCell id="TEjGhy-0zvvfLUoEbb6R-45" value="" style="rounded=0;orthogonalLoop=1;jettySize=auto;html=1;endArrow=oval;endFill=0;sketch=0;sourcePerimeterSpacing=0;targetPerimeterSpacing=0;endSize=10;exitX=0.75;exitY=0;exitDx=0;exitDy=0;" edge="1" parent="1" source="TEjGhy-0zvvfLUoEbb6R-7" target="TEjGhy-0zvvfLUoEbb6R-46">
          <mxGeometry relative="1" as="geometry">
            <mxPoint x="720" y="305" as="sourcePoint" />
          </mxGeometry>
        </mxCell>
        <mxCell id="TEjGhy-0zvvfLUoEbb6R-46" value="" style="ellipse;whiteSpace=wrap;html=1;align=center;aspect=fixed;fillColor=none;strokeColor=none;resizable=0;perimeter=centerPerimeter;rotatable=0;allowArrows=0;points=[];outlineConnect=1;" vertex="1" parent="1">
          <mxGeometry x="735" y="300" width="10" height="10" as="geometry" />
        </mxCell>
        <mxCell id="TEjGhy-0zvvfLUoEbb6R-48" value="requires&amp;nbsp;&lt;div&gt;data to&amp;nbsp;&lt;/div&gt;&lt;div&gt;calculate&amp;nbsp;&lt;/div&gt;&lt;div&gt;salaries&lt;/div&gt;" style="text;html=1;align=center;verticalAlign=middle;resizable=0;points=[];autosize=1;strokeColor=none;fillColor=none;" vertex="1" parent="1">
          <mxGeometry x="5" y="258" width="70" height="70" as="geometry" />
        </mxCell>
        <mxCell id="TEjGhy-0zvvfLUoEbb6R-51" value="data to associate attendance records" style="text;html=1;align=center;verticalAlign=middle;resizable=0;points=[];autosize=1;strokeColor=none;fillColor=none;" vertex="1" parent="1">
          <mxGeometry x="265" y="310" width="220" height="30" as="geometry" />
        </mxCell>
        <mxCell id="TEjGhy-0zvvfLUoEbb6R-53" value="data to generate various reports" style="text;html=1;align=center;verticalAlign=middle;resizable=0;points=[];autosize=1;strokeColor=none;fillColor=none;" vertex="1" parent="1">
          <mxGeometry x="335" y="120" width="190" height="30" as="geometry" />
        </mxCell>
        <mxCell id="TEjGhy-0zvvfLUoEbb6R-55" value="generate financial&amp;nbsp;&lt;div&gt;&amp;nbsp; &amp;nbsp; &amp;nbsp; &amp;nbsp; reports&lt;/div&gt;" style="text;whiteSpace=wrap;html=1;" vertex="1" parent="1">
          <mxGeometry x="400" y="370" width="170" height="40" as="geometry" />
        </mxCell>
        <mxCell id="TEjGhy-0zvvfLUoEbb6R-56" value="requires data calculate&amp;nbsp;&lt;div&gt;salaries based on hours&lt;/div&gt;" style="text;whiteSpace=wrap;html=1;" vertex="1" parent="1">
          <mxGeometry x="400" y="514" width="120" height="30" as="geometry" />
        </mxCell>
        <mxCell id="TEjGhy-0zvvfLUoEbb6R-60" value="data to generate&lt;div&gt;&amp;nbsp;r&lt;span style=&quot;background-color: initial;&quot;&gt;eports related to&lt;/span&gt;&lt;/div&gt;&lt;div&gt;&lt;span style=&quot;background-color: initial;&quot;&gt;&amp;nbsp;employee&lt;/span&gt;&lt;/div&gt;" style="text;whiteSpace=wrap;html=1;" vertex="1" parent="1">
          <mxGeometry x="745" y="210" width="160" height="40" as="geometry" />
        </mxCell>
        <mxCell id="TEjGhy-0zvvfLUoEbb6R-61" value="requires" style="html=1;verticalAlign=bottom;endArrow=open;dashed=1;endSize=8;curved=0;rounded=0;exitX=0;exitY=0;exitDx=0;exitDy=0;entryX=1;entryY=1;entryDx=0;entryDy=0;" edge="1" parent="1" source="TEjGhy-0zvvfLUoEbb6R-7" target="TEjGhy-0zvvfLUoEbb6R-1">
          <mxGeometry x="0.5096" y="-13" relative="1" as="geometry">
            <mxPoint x="540" y="270" as="sourcePoint" />
            <mxPoint x="460" y="270" as="targetPoint" />
            <mxPoint as="offset" />
          </mxGeometry>
        </mxCell>
        <mxCell id="TEjGhy-0zvvfLUoEbb6R-62" value="requires" style="html=1;verticalAlign=bottom;endArrow=open;dashed=1;endSize=8;curved=0;rounded=0;exitX=0.5;exitY=0;exitDx=0;exitDy=0;" edge="1" parent="1" source="TEjGhy-0zvvfLUoEbb6R-5">
          <mxGeometry relative="1" as="geometry">
            <mxPoint x="550" y="430" as="sourcePoint" />
            <mxPoint x="180" y="180" as="targetPoint" />
          </mxGeometry>
        </mxCell>
        <mxCell id="TEjGhy-0zvvfLUoEbb6R-63" value="requires" style="html=1;verticalAlign=bottom;endArrow=open;dashed=1;endSize=8;curved=0;rounded=0;exitX=1;exitY=0;exitDx=0;exitDy=0;entryX=0;entryY=1;entryDx=0;entryDy=0;" edge="1" parent="1" source="TEjGhy-0zvvfLUoEbb6R-5" target="TEjGhy-0zvvfLUoEbb6R-3">
          <mxGeometry x="0.5013" y="15" relative="1" as="geometry">
            <mxPoint x="194" y="420" as="sourcePoint" />
            <mxPoint x="190" y="190" as="targetPoint" />
            <mxPoint as="offset" />
          </mxGeometry>
        </mxCell>
      </root>
    </mxGraphModel>
  </diagram>
</mxfile>
